<?xml version="1.0" encoding="utf-8"?>
<!-- Generator: Adobe Illustrator 27.9.0, SVG Export Plug-In . SVG Version: 6.00 Build 0)  -->
<svg version="1.1" id="Capa_1" xmlns="http://www.w3.org/2000/svg" xmlns:xlink="http://www.w3.org/1999/xlink" x="0px" y="0px"
	 viewBox="0 0 1920 595" style="enable-background:new 0 0 1920 595;" xml:space="preserve">
<style type="text/css">
	.st0{fill:#FFF9FE;}
	.st1{opacity:0.25;}
	.st2{opacity:0.39;}
	.st3{fill:#FF6BB0;}
	.st4{opacity:0.42;}
</style>
<path class="st0" d="M0,0h1920v595H0V0z"/>
<g class="st1">
	<g>
		<g class="st2">
			<path class="st3" d="M1624,36.8c0,0,225.7,84.2,185.9,368.1c-2.3,16.7-10,32.3-22.1,43.2c-20.4,18.5-59.1,30.3-128.7-15.5
				C1531.5,348.5,1541.5,138.3,1624,36.8L1624,36.8z"/>
		</g>
		<g class="st2">
			<path class="st3" d="M1806.7,79c0,0,114.5,154.3-2.1,356.2c-7.2,12.5-23,22.5-35.8,26.3c-21.6,6.3-48.6,1.1-80.1-60.6
				C1631,287.8,1696.2,130,1806.7,79L1806.7,79z"/>
		</g>
		<g class="st2">
			<path class="st3" d="M1810.9,419c0,0,29.2-64.8-83.4-74.8c-112.6-10-188.2,60-188.2,60s-44.8,30.7-73.5,92.8
				c0,0,101.1,59,231.6,2.9C1697.5,499.9,1805.2,456.1,1810.9,419L1810.9,419z"/>
		</g>
		<g class="st4">
			<path class="st3" d="M1812.4,402.9c0,0,0.7-49.2-71.9-20.6c-72.6,28.6-100.7,95.5-100.7,95.5s-19.5,32.9-20.6,80.4
				c0,0,78.6,5.3,144.5-69.9C1763.8,488.2,1818.8,427.7,1812.4,402.9L1812.4,402.9z"/>
		</g>
	</g>
	<path class="st3" d="M1839.7,366.8c-11.1,28-25.3,54.5-42.3,78.8c-16.6,23.8-23.8,35.1-44.1,59.9c-0.6,0.8,0.3,1.8,1,1.2
		c17.1-15,65.1-62.3,102.9-147.1c0,0,7.1-14.9,0.9-18.1c-6.3-3.4-10.7,5.9-12.2,9.8L1839.7,366.8z"/>
	<path class="st3" d="M1838.9,368.4c5.1-13.9,26.6-68.6,42-69.2c1.9,0,3.5,1.3,4.6,2.7c-1.1-1.4-2.8-2.5-4.6-2.5
		C1866.7,300,1844.7,355,1838.9,368.4L1838.9,368.4L1838.9,368.4z"/>
	<path class="st3" d="M1835.8,377.7c6.1-20.2,30.5-93.8,51.5-97.8c2.6-0.4,5.1,0.6,6.9,2.3c-1.9-1.6-4.4-2.6-6.9-2.1
		C1867.4,284.2,1842.8,357.7,1835.8,377.7L1835.8,377.7L1835.8,377.7z"/>
	<ellipse class="st3" cx="1883.9" cy="300.4" rx="1.9" ry="2.1"/>
	<ellipse class="st3" cx="1895.3" cy="282" rx="1.9" ry="2.1"/>
</g>
</svg>
