<!-- icon666.com - MILLIONS OF FREE VECTOR ICONS --><svg width="50" height="50" viewBox="-63 0 433 433.49386" xmlns="http://www.w3.org/2000/svg"><path d="m169.011719 24.753906c2.699219.25 5.320312.6875 8 1.066406 2.019531.300782 4 .550782 6.042969.925782 3.550781.648437 7.023437 1.472656 10.488281 2.351562.972656.25 1.941406.480469 2.917969.753906 3.90625 1.066407 7.742187 2.28125 11.511718 3.648438.296875.101562.601563.175781.898438.277344.0625 0 .109375.089844.175781.113281 2 .734375 4.039063 1.390625 6.007813 2.199219-12.175782-22.277344-35.550782-36.121094-60.9375-36.089844-25.386719.03125-48.730469 13.933594-60.847657 36.242188 19.304688-8.019532 39.996094-12.179688 60.902344-12.238282 4.960937 0 9.90625.277344 14.839844.75zm0 0" fill="#000000" style="fill: rgb(255, 152, 197);"></path><path d="m98.171875 240.003906c-17.671875 0-32 14.324219-32 32 0 17.671875 14.328125 32 32 32 17.675781 0 32-14.328125 32-32 0-17.675781-14.324219-32-32-32zm24 40h-16v16h-16v-16h-16v-16h16v-16h16v16h16zm0 0" fill="#000000" style="fill: rgb(255, 152, 197);"></path><path d="m90.171875 264.003906h16v16h-16zm0 0" fill="#000000" style="fill: rgb(255, 152, 197);"></path><path d="m67.101562 194.402344c.078126-.078125.175782-.128906.253907-.207032 9.730469-7.441406 19.097656-15.308593 28.105469-23.601562-25.855469-17.527344-45.894532-42.371094-57.550782-71.351562-18.023437 24.585937-27.742187 54.277343-27.738281 84.761718v42.222656c4.019531-1.425781 8.242187-2.179687 12.503906-2.222656 15.4375-8.886718 30.277344-18.777344 44.425781-29.601562zm0 0" fill="#000000" style="fill: rgb(255, 152, 197);"></path><path d="m1.878906 254.273438c-3.667968 9.128906-1.019531 19.582031 6.550782 25.863281l17.742187 14.785156v-54.917969h-3.199219c-9.296875-.035156-17.667968 5.625-21.09375 14.269532zm0 0" fill="#000000" style="fill: rgb(255, 152, 197);"></path><path d="m95.523438 192.003906h46.296874l-2.453124-.722656c-10.226563-3.019531-20.121094-7.066406-29.53125-12.078125-4.664063 4.375-9.453126 8.632813-14.3125 12.800781zm0 0" fill="#000000" style="fill: rgb(255, 152, 197);"></path><path d="m143.878906 175.929688 154.292969 45.386718v-37.3125c-.105469-60.699218-38.230469-114.824218-95.351563-135.363281-3.582031-1.289063-7.195312-2.433594-10.839843-3.429687-.6875-.191407-1.390625-.359376-2.085938-.542969-3.28125-.847657-6.570312-1.601563-9.875-2.21875-1.664062-.300781-3.351562-.519531-5.039062-.796875-2.496094-.378906-4.992188-.800782-7.496094-1.011719-4.390625-.367187-8.816406-.636719-13.3125-.636719-39.558594-.152344-77.40625 16.132813-104.496094 44.964844 14.582031 43.9375 49.785157 77.925781 94.203125 90.960938zm0 0" fill="#000000" style="fill: rgb(255, 152, 197);"></path><path d="m210.171875 304.003906c17.675781 0 32-14.328125 32-32 0-17.675781-14.324219-32-32-32-17.671875 0-32 14.324219-32 32 0 17.671875 14.328125 32 32 32zm-24-40h16v-16h16v16h16v16h-16v16h-16v-16h-16zm0 0" fill="#000000" style="fill: rgb(255, 152, 197);"></path><path d="m75.683594 208.003906c-10.839844 8.214844-22.109375 15.847656-33.710938 23 .085938.328125.152344.660156.199219 1v88.285156c-.011719 19.238282 5.394531 38.089844 15.59375 54.402344l6.703125 10.71875c18.058594 28.660156 49.054688 46.605469 82.898438 47.996094 33.847656 1.390625 66.210937-13.953125 86.558593-41.035156l11.726563-15.648438c13.285156-17.785156 20.480468-39.378906 20.519531-61.574218v-86.570313l-69.949219-20.574219zm81.328125 86.398438c4.132812 1.566406 6.210937 6.1875 4.640625 10.320312l-13.429688 35.359375 9.527344 4.761719c3.953125 1.972656 5.558594 6.78125 3.582031 10.734375-1.972656 3.953125-6.78125 5.558594-10.734375 3.585937l-16-8c-3.675781-1.835937-5.363281-6.160156-3.90625-10l16-42.105468c.75-1.988282 2.261719-3.59375 4.195313-4.46875 1.9375-.871094 4.140625-.941406 6.125-.1875zm-58.839844 25.601562c-26.507813 0-48-21.492187-48-48 0-26.511718 21.492187-48 48-48 26.511719 0 48 21.488282 48 48-.023437 26.496094-21.5 47.972656-48 48zm101.65625 53.65625c-25.230469 25.171875-66.078125 25.171875-91.3125 0-3.03125-3.140625-2.988281-8.128906.097656-11.214844 3.085938-3.085937 8.078125-3.128906 11.214844-.097656 18.980469 18.9375 49.710937 18.9375 68.6875 0 3.140625-3.03125 8.128906-2.988281 11.214844.097656 3.085937 3.085938 3.128906 8.074219.097656 11.214844zm58.34375-101.65625c0 26.507813-21.488281 48-48 48-26.507813 0-48-21.492187-48-48 0-26.511718 21.492187-48 48-48 26.5.023438 47.976563 21.5 48 48zm0 0" fill="#000000" style="fill: rgb(255, 152, 197);"></path><path d="m306.460938 254.273438c-3.417969-8.644532-11.789063-14.308594-21.085938-14.269532h-3.203125v54.917969l17.746094-14.785156c7.570312-6.28125 10.214843-16.734375 6.542969-25.863281zm0 0" fill="#000000" style="fill: rgb(255, 152, 197);"></path><path d="m202.171875 264.003906h16v16h-16zm0 0" fill="#000000" style="fill: rgb(255, 152, 197);"></path></svg>