<?xml version="1.0" encoding="utf-8"?>
<!-- Generator: Adobe Illustrator 27.9.0, SVG Export Plug-In . SVG Version: 6.00 Build 0)  -->
<svg version="1.1" id="Icons" xmlns="http://www.w3.org/2000/svg" xmlns:xlink="http://www.w3.org/1999/xlink" x="0px" y="0px"
	 viewBox="0 0 50 50" style="enable-background:new 0 0 50 50;" xml:space="preserve">
<style type="text/css">
	.st0{fill:#FF98C5;}
</style>
<path class="st0" d="M25,14.1c2.7,0,4.7-2,4.7-4.7s-2-4.7-4.7-4.7s-4.7,2-4.7,4.7S22.3,14.1,25,14.1z"/>
<path class="st0" d="M46.4,17.7L35.5,7.5C35,7,34.4,7,33.8,7.2c-0.6,0.3-0.9,0.9-0.9,1.6c0,0.2,0,0.5,0,0.6c0,4.4-3.4,7.8-7.8,7.8
	s-7.8-3.4-7.8-7.8c0-0.2,0-0.5,0-0.6c0-0.6-0.3-1.3-0.9-1.6C15.6,6.9,15,7,14.5,7.5L3.6,17.7C3.1,18,3,18.6,3.1,19.2
	c0.2,0.6,0.5,0.9,1.1,1.1l13.9,4.4c-2.3,0.8-4.1,2.2-4.1,4.2c0,0.8,0.3,2,1.7,3.1c0.6,0.5,1.7,0.3,2.2-0.3c0.5-0.6,0.3-1.7-0.3-2.2
	c-0.5-0.3-0.5-0.6-0.5-0.6c0-0.5,2.2-2,6.2-2.3v4.7c-3.6,0.5-6.2,2.2-6.2,4.5c0,1.6,1.1,2.8,2.8,3.8c0.2,0.2,0.5,0.2,0.6,0.2
	c0.6,0,1.1-0.3,1.4-0.9c0.3-0.8,0-1.7-0.8-2c-0.6-0.3-0.9-0.6-0.9-0.8c0-0.3,1.1-1.1,3.1-1.4v7.7c0,0.9,0.6,1.6,1.6,1.6
	s1.6-0.6,1.6-1.6v-1.2c0.9,0.3,1.6,0.9,1.6,1.2c0,0.6-1.2,1.6-3.1,1.6s-3.1-0.9-3.1-1.6c0-0.9-0.6-1.6-1.6-1.6s-1.6,0.6-1.6,1.6
	c0,2.7,2.8,4.7,6.2,4.7s6.2-2,6.2-4.7c0-2.2-2-4.1-4.7-4.5v-3.3c4.8-0.3,9.4-2.2,9.4-5.5c0-2-1.7-3.4-4.1-4.4l13.9-4.4
	c0.5-0.2,0.9-0.6,1.1-1.1S46.7,18,46.4,17.7z M32.8,28.9c0,0.5-2.2,2-6.2,2.3v-4.7C30.6,26.9,32.8,28.4,32.8,28.9z"/>
</svg>
