<!-- icon666.com - MILLIONS OF FREE VECTOR ICONS --><svg width="50" height="50" id="Capa_1" enable-background="new 0 0 512 512" viewBox="0 0 512 512" xmlns="http://www.w3.org/2000/svg"><g><path d="m256 0c-90.981 0-165 75.019-165 166 0 85.919 66.031 156.627 150 164.24v30.76h-15c-8.291 0-15 6.709-15 15v91c0 24.814 20.186 45 45 45s45-20.186 45-45v-91c0-8.291-6.709-15-15-15h-15v-30.76c83.969-7.614 150-78.322 150-164.24 0-90.981-74.019-166-165-166zm75 136c0 36.216-25.809 66.513-60 73.482v46.518c0 8.291-6.709 15-15 15s-15-6.709-15-15v-46.518c-34.191-6.969-60-37.266-60-73.482v-30c0-8.291 6.709-15 15-15s15 6.709 15 15v30c0 19.53 12.578 36.024 30 42.237v-72.237c0-8.291 6.709-15 15-15s15 6.709 15 15v72.237c17.422-6.213 30-22.707 30-42.237v-30c0-8.291 6.709-15 15-15s15 6.709 15 15z" fill="#000000" style="fill: rgb(255, 152, 197);"></path></g></svg>